<svg xmlns="http://www.w3.org/2000/svg" xmlns:xlink="http://www.w3.org/1999/xlink" contentStyleType="text/css" height="934px" preserveAspectRatio="none" style="width:1381px;height:934px;background:#FFFFFF;" version="1.1" viewBox="0 0 1381 934" width="1381px" zoomAndPan="magnify"><title>CI/CD Pipeline Flow</title><defs/><g><text fill="#000000" font-family="sans-serif" font-size="14" font-weight="bold" lengthAdjust="spacing" textLength="135.5195" x="621.6865" y="34.9659">CI/CD Pipeline Flow</text><rect fill="none" height="19.0679" style="stroke:none;stroke-width:1;" width="1348.8925" x="15" y="52.6699"/><ellipse cx="447.2252" cy="86.7378" fill="#222222" rx="10" ry="10" style="stroke:#222222;stroke-width:1;"/><rect fill="#F1F1F1" height="39.0679" rx="12.5" ry="12.5" style="stroke:#181818;stroke-width:0.5;" width="171.1434" x="361.6535" y="116.7378"/><text fill="#000000" font-family="sans-serif" font-size="14" lengthAdjust="spacing" textLength="151.1434" x="371.6535" y="141.7038">Push to feature branch</text><rect fill="#F1F1F1" height="39.0679" rx="12.5" ry="12.5" style="stroke:#181818;stroke-width:0.5;" width="120.4636" x="94.3188" y="631.3491"/><text fill="#000000" font-family="sans-serif" font-size="14" lengthAdjust="spacing" textLength="100.4636" x="104.3188" y="656.315">Request review</text><rect fill="#F1F1F1" height="39.0679" rx="12.5" ry="12.5" style="stroke:#181818;stroke-width:0.5;" width="116.8936" x="21" y="793.4849"/><text fill="#000000" font-family="sans-serif" font-size="14" lengthAdjust="spacing" textLength="96.8936" x="31" y="818.4508">Merge to main</text><ellipse cx="79.4468" cy="863.5528" fill="none" rx="11" ry="11" style="stroke:#222222;stroke-width:1;"/><ellipse cx="79.4468" cy="863.5528" fill="#222222" rx="6" ry="6" style="stroke:#222222;stroke-width:1;"/><rect fill="#F1F1F1" height="39.0679" rx="12.5" ry="12.5" style="stroke:#181818;stroke-width:0.5;" width="143.5215" x="157.8936" y="793.4849"/><text fill="#000000" font-family="sans-serif" font-size="14" lengthAdjust="spacing" textLength="123.5215" x="167.8936" y="818.4508">Fix and push again</text><rect fill="#F1F1F1" height="39.0679" rx="12.5" ry="12.5" style="stroke:#181818;stroke-width:0.5;" width="120.3936" x="340.5071" y="572.2812"/><text fill="#000000" font-family="sans-serif" font-size="14" lengthAdjust="spacing" textLength="100.3936" x="350.5071" y="597.2471">Report &#10060; on PR</text><rect fill="#F1F1F1" height="39.0679" rx="12.5" ry="12.5" style="stroke:#181818;stroke-width:0.5;" width="178.5774" x="311.4152" y="631.3491"/><text fill="#000000" font-family="sans-serif" font-size="14" lengthAdjust="spacing" textLength="158.5774" x="321.4152" y="656.315">Fix tests and push again</text><rect fill="#F1F1F1" height="39.0679" rx="12.5" ry="12.5" style="stroke:#181818;stroke-width:0.5;" width="120.3936" x="566.6264" y="435.1453"/><text fill="#000000" font-family="sans-serif" font-size="14" lengthAdjust="spacing" textLength="100.3936" x="576.6264" y="460.1113">Report &#10060; on PR</text><rect fill="#F1F1F1" height="39.0679" rx="12.5" ry="12.5" style="stroke:#181818;stroke-width:0.5;" width="213.6612" x="519.9926" y="509.2132"/><text fill="#000000" font-family="sans-serif" font-size="14" lengthAdjust="spacing" textLength="193.6612" x="529.9926" y="534.1792">Fix Dockerfile and push again</text><line style="stroke:#000000;stroke-width:1.5;" x1="15" x2="15" y1="52.6699" y2="922.5528"/><rect fill="#F1F1F1" height="58.1358" rx="12.5" ry="12.5" style="stroke:#181818;stroke-width:0.5;" width="175.5674" x="1029.3365" y="175.8057"/><text fill="#000000" font-family="sans-serif" font-size="14" lengthAdjust="spacing" textLength="112.3496" x="1039.3365" y="200.7717">Trigger workflow</text><text fill="#000000" font-family="sans-serif" font-size="14" lengthAdjust="spacing" textLength="155.5674" x="1039.3365" y="219.8396">(on push / pull_request)</text><rect fill="#F1F1F1" height="39.0679" rx="12.5" ry="12.5" style="stroke:#181818;stroke-width:0.5;" width="117.1036" x="1058.5684" y="253.9416"/><text fill="#000000" font-family="sans-serif" font-size="14" lengthAdjust="spacing" textLength="97.1036" x="1068.5684" y="278.9075">Checkout code</text><rect fill="#F1F1F1" height="58.1358" rx="12.5" ry="12.5" style="stroke:#181818;stroke-width:0.5;" width="197.9533" x="1018.1435" y="313.0095"/><text fill="#000000" font-family="sans-serif" font-size="14" lengthAdjust="spacing" textLength="128.4915" x="1028.1435" y="337.9754">Build Docker image</text><text fill="#000000" font-family="sans-serif" font-size="14" lengthAdjust="spacing" textLength="177.9533" x="1028.1435" y="357.0433">`docker build -t kata-tests .`</text><polygon fill="#F1F1F1" points="1065.5164,391.1453,1168.724,391.1453,1180.724,403.1453,1168.724,415.1453,1065.5164,415.1453,1053.5164,403.1453,1065.5164,391.1453" style="stroke:#181818;stroke-width:0.5;"/><text fill="#000000" font-family="sans-serif" font-size="14" lengthAdjust="spacing" textLength="103.2076" x="1065.5164" y="408.5773">Build succeeds?</text><text fill="#000000" font-family="sans-serif" font-size="14" lengthAdjust="spacing" textLength="21.7419" x="1031.7745" y="399.0433">yes</text><text fill="#000000" font-family="sans-serif" font-size="14" lengthAdjust="spacing" textLength="17.1219" x="1180.724" y="399.0433">no</text><rect fill="#F1F1F1" height="58.1358" rx="12.5" ry="12.5" style="stroke:#181818;stroke-width:0.5;" width="198.8773" x="838.0836" y="435.1453"/><text fill="#000000" font-family="sans-serif" font-size="14" lengthAdjust="spacing" textLength="143.3034" x="848.0836" y="460.1113">Run tests in container</text><text fill="#000000" font-family="sans-serif" font-size="14" lengthAdjust="spacing" textLength="178.8773" x="848.0836" y="479.1792">`docker run --rm kata-tests`</text><polygon fill="#F1F1F1" points="900.6534,528.2812,974.3911,528.2812,986.3911,540.2812,974.3911,552.2812,900.6534,552.2812,888.6534,540.2812,900.6534,528.2812" style="stroke:#181818;stroke-width:0.5;"/><text fill="#000000" font-family="sans-serif" font-size="14" lengthAdjust="spacing" textLength="73.7377" x="900.6534" y="545.7131">Tests pass?</text><text fill="#000000" font-family="sans-serif" font-size="14" lengthAdjust="spacing" textLength="21.7419" x="866.9115" y="536.1792">yes</text><text fill="#000000" font-family="sans-serif" font-size="14" lengthAdjust="spacing" textLength="17.1219" x="986.3911" y="536.1792">no</text><rect fill="#F1F1F1" height="39.0679" rx="12.5" ry="12.5" style="stroke:#181818;stroke-width:0.5;" width="121.5836" x="743.6538" y="572.2812"/><text fill="#000000" font-family="sans-serif" font-size="14" lengthAdjust="spacing" textLength="101.5836" x="753.6538" y="597.2471">Report &#9989; on PR</text><line style="stroke:#000000;stroke-width:1.5;" x1="737.6538" x2="737.6538" y1="52.6699" y2="922.5528"/><rect fill="#F1F1F1" height="39.0679" rx="12.5" ry="12.5" style="stroke:#181818;stroke-width:0.5;" width="87.0457" x="1250.3718" y="690.417"/><text fill="#000000" font-family="sans-serif" font-size="14" lengthAdjust="spacing" textLength="67.0457" x="1260.3718" y="715.3829">Review PR</text><polygon fill="#F1F1F1" points="1258.8388,749.4849,1328.9505,749.4849,1340.9505,761.4849,1328.9505,773.4849,1258.8388,773.4849,1246.8388,761.4849,1258.8388,749.4849" style="stroke:#181818;stroke-width:0.5;"/><text fill="#000000" font-family="sans-serif" font-size="14" lengthAdjust="spacing" textLength="70.1117" x="1258.8388" y="766.9169">Approved?</text><text fill="#000000" font-family="sans-serif" font-size="14" lengthAdjust="spacing" textLength="21.7419" x="1225.0969" y="757.3829">yes</text><text fill="#000000" font-family="sans-serif" font-size="14" lengthAdjust="spacing" textLength="17.1219" x="1340.9505" y="757.3829">no</text><line style="stroke:#000000;stroke-width:1.5;" x1="1220.0969" x2="1220.0969" y1="52.6699" y2="922.5528"/><line style="stroke:#000000;stroke-width:1.5;" x1="1363.0725" x2="1363.0725" y1="52.6699" y2="922.5528"/><line style="stroke:#181818;stroke-width:1;" x1="447.2252" x2="447.2252" y1="96.7378" y2="116.7378"/><polygon fill="#181818" points="443.2252,106.7378,447.2252,116.7378,451.2252,106.7378,447.2252,110.7378" style="stroke:#181818;stroke-width:1;"/><line style="stroke:#181818;stroke-width:1;" x1="79.4468" x2="79.4468" y1="832.5528" y2="852.5528"/><polygon fill="#181818" points="75.4468,842.5528,79.4468,852.5528,83.4468,842.5528,79.4468,846.5528" style="stroke:#181818;stroke-width:1;"/><line style="stroke:#181818;stroke-width:1;" x1="400.7039" x2="400.7039" y1="611.3491" y2="631.3491"/><polygon fill="#181818" points="396.7039,621.3491,400.7039,631.3491,404.7039,621.3491,400.7039,625.3491" style="stroke:#181818;stroke-width:1;"/><line style="stroke:#181818;stroke-width:1;" x1="626.8232" x2="626.8232" y1="474.2132" y2="509.2132"/><polygon fill="#181818" points="622.8232,499.2132,626.8232,509.2132,630.8232,499.2132,626.8232,503.2132" style="stroke:#181818;stroke-width:1;"/><line style="stroke:#181818;stroke-width:1;" x1="1117.1202" x2="1117.1202" y1="233.9416" y2="253.9416"/><polygon fill="#181818" points="1113.1202,243.9416,1117.1202,253.9416,1121.1202,243.9416,1117.1202,247.9416" style="stroke:#181818;stroke-width:1;"/><line style="stroke:#181818;stroke-width:1;" x1="1117.1202" x2="1117.1202" y1="293.0095" y2="313.0095"/><polygon fill="#181818" points="1113.1202,303.0095,1117.1202,313.0095,1121.1202,303.0095,1117.1202,307.0095" style="stroke:#181818;stroke-width:1;"/><line style="stroke:#181818;stroke-width:1;" x1="888.6534" x2="804.4456" y1="540.2812" y2="540.2812"/><line style="stroke:#181818;stroke-width:1;" x1="804.4456" x2="804.4456" y1="540.2812" y2="572.2812"/><polygon fill="#181818" points="800.4456,562.2812,804.4456,572.2812,808.4456,562.2812,804.4456,566.2812" style="stroke:#181818;stroke-width:1;"/><line style="stroke:#181818;stroke-width:1;" x1="937.5222" x2="937.5222" y1="493.2812" y2="528.2812"/><polygon fill="#181818" points="933.5222,518.2812,937.5222,528.2812,941.5222,518.2812,937.5222,522.2812" style="stroke:#181818;stroke-width:1;"/><line style="stroke:#181818;stroke-width:1;" x1="1053.5164" x2="937.5222" y1="403.1453" y2="403.1453"/><line style="stroke:#181818;stroke-width:1;" x1="937.5222" x2="937.5222" y1="403.1453" y2="435.1453"/><polygon fill="#181818" points="933.5222,425.1453,937.5222,435.1453,941.5222,425.1453,937.5222,429.1453" style="stroke:#181818;stroke-width:1;"/><line style="stroke:#181818;stroke-width:1;" x1="1117.1202" x2="1117.1202" y1="371.1453" y2="391.1453"/><polygon fill="#181818" points="1113.1202,381.1453,1117.1202,391.1453,1121.1202,381.1453,1117.1202,385.1453" style="stroke:#181818;stroke-width:1;"/><line style="stroke:#181818;stroke-width:1;" x1="1293.8947" x2="1293.8947" y1="729.4849" y2="749.4849"/><polygon fill="#181818" points="1289.8947,739.4849,1293.8947,749.4849,1297.8947,739.4849,1293.8947,743.4849" style="stroke:#181818;stroke-width:1;"/><line style="stroke:#181818;stroke-width:1;" x1="447.2252" x2="447.2252" y1="155.8057" y2="160.8057"/><line style="stroke:#181818;stroke-width:1;" x1="447.2252" x2="1117.1202" y1="160.8057" y2="160.8057"/><line style="stroke:#181818;stroke-width:1;" x1="1117.1202" x2="1117.1202" y1="160.8057" y2="175.8057"/><polygon fill="#181818" points="1113.1202,165.8057,1117.1202,175.8057,1121.1202,165.8057,1117.1202,169.8057" style="stroke:#181818;stroke-width:1;"/><line style="stroke:#181818;stroke-width:1;" x1="804.4456" x2="804.4456" y1="611.3491" y2="616.3491"/><line style="stroke:#181818;stroke-width:1;" x1="804.4456" x2="154.5506" y1="616.3491" y2="616.3491"/><line style="stroke:#181818;stroke-width:1;" x1="154.5506" x2="154.5506" y1="616.3491" y2="631.3491"/><polygon fill="#181818" points="150.5506,621.3491,154.5506,631.3491,158.5506,621.3491,154.5506,625.3491" style="stroke:#181818;stroke-width:1;"/><line style="stroke:#181818;stroke-width:1;" x1="154.5506" x2="154.5506" y1="670.417" y2="675.417"/><line style="stroke:#181818;stroke-width:1;" x1="154.5506" x2="1293.8947" y1="675.417" y2="675.417"/><line style="stroke:#181818;stroke-width:1;" x1="1293.8947" x2="1293.8947" y1="675.417" y2="690.417"/><polygon fill="#181818" points="1289.8947,680.417,1293.8947,690.417,1297.8947,680.417,1293.8947,684.417" style="stroke:#181818;stroke-width:1;"/><line style="stroke:#181818;stroke-width:1;" x1="1246.8388" x2="79.4468" y1="761.4849" y2="761.4849"/><line style="stroke:#181818;stroke-width:1;" x1="79.4468" x2="79.4468" y1="761.4849" y2="793.4849"/><polygon fill="#181818" points="75.4468,783.4849,79.4468,793.4849,83.4468,783.4849,79.4468,787.4849" style="stroke:#181818;stroke-width:1;"/><line style="stroke:#181818;stroke-width:1;" x1="1340.9505" x2="1352.9505" y1="761.4849" y2="761.4849"/><line style="stroke:#181818;stroke-width:1;" x1="1352.9505" x2="1352.9505" y1="761.4849" y2="779.4849"/><line style="stroke:#181818;stroke-width:1;" x1="1352.9505" x2="229.6544" y1="779.4849" y2="779.4849"/><line style="stroke:#181818;stroke-width:1;" x1="229.6544" x2="229.6544" y1="779.4849" y2="793.4849"/><polygon fill="#181818" points="225.6544,783.4849,229.6544,793.4849,233.6544,783.4849,229.6544,787.4849" style="stroke:#181818;stroke-width:1;"/><line style="stroke:#181818;stroke-width:1;" x1="986.3911" x2="998.3911" y1="540.2812" y2="540.2812"/><line style="stroke:#181818;stroke-width:1;" x1="998.3911" x2="998.3911" y1="540.2812" y2="558.2812"/><line style="stroke:#181818;stroke-width:1;" x1="998.3911" x2="400.7039" y1="558.2812" y2="558.2812"/><line style="stroke:#181818;stroke-width:1;" x1="400.7039" x2="400.7039" y1="558.2812" y2="572.2812"/><polygon fill="#181818" points="396.7039,562.2812,400.7039,572.2812,404.7039,562.2812,400.7039,566.2812" style="stroke:#181818;stroke-width:1;"/><line style="stroke:#181818;stroke-width:1;" x1="1180.724" x2="1192.724" y1="403.1453" y2="403.1453"/><line style="stroke:#181818;stroke-width:1;" x1="1192.724" x2="1192.724" y1="403.1453" y2="421.1453"/><line style="stroke:#181818;stroke-width:1;" x1="1192.724" x2="626.8232" y1="421.1453" y2="421.1453"/><line style="stroke:#181818;stroke-width:1;" x1="626.8232" x2="626.8232" y1="421.1453" y2="435.1453"/><polygon fill="#181818" points="622.8232,425.1453,626.8232,435.1453,630.8232,425.1453,626.8232,429.1453" style="stroke:#181818;stroke-width:1;"/><text fill="#000000" font-family="sans-serif" font-size="14" lengthAdjust="spacing" textLength="67.4937" x="342.58" y="67.6358">Developer</text><text fill="#000000" font-family="sans-serif" font-size="14" lengthAdjust="spacing" textLength="98.2936" x="929.7285" y="67.6358">GitHub Actions</text><text fill="#000000" font-family="sans-serif" font-size="14" lengthAdjust="spacing" textLength="59.9057" x="1261.6318" y="67.6358">Reviewer</text><!--SRC=[VPAnRjim441tViMDzk061JhPGv7OSDAXWE5c3D3Gv4aYH9FiyMYtXTTk_OJcv_8beKJ3KUh0atIyutiy7cDhN90ajx2Hggt99wVdtdg2VMCOHJpbDLOoMLvwnz_CRuIFduHWmnPX_kLgle2L2MYDGrXQlnVYiC0TMX-G3YAo91RJLOeDi8SA9IT2s91qgfdbsbl3Tsa3rugDT_4WflTawXhp8JorLUOzk95t43h0LVvO-vtmHyB8uvcOpXjKhKyCoclCyKqoLiF2gpOJp5RM-E0UTGatVMx2q4gM4yw421yUynbC1QEoCIQb47NyF0PkqC7e5yQn09YkauEomxZiSYnpk_JAffoVJ6WxO6SoG8U-x_S56S-m7HY39uRdVtyWTxbQp_hbuGqUo_gMWN1dS7yiMlV1eAOBJunEVHq2-HtgS_6v8nE-8jNOZMcRsviTLoFxqF-YZGWZvoy0bkOdIAVBj6Gze6XagPh2STfKud_UwIQU_bwyYKvH9l6UwAGfag7YNS5RV0ylZwSo-NMV6uxyGdy1]--></g></svg>