<svg xmlns="http://www.w3.org/2000/svg" xmlns:xlink="http://www.w3.org/1999/xlink" contentStyleType="text/css" height="245px" preserveAspectRatio="none" style="width:812px;height:245px;background:#FFFFFF;" version="1.1" viewBox="0 0 812 245" width="812px" zoomAndPan="magnify"><title>Implementation Order &#8212; Backend First</title><defs/><g><text fill="#000000" font-family="sans-serif" font-size="14" font-weight="bold" lengthAdjust="spacing" textLength="275.5329" x="261.4213" y="24.9659">Implementation Order &#8212; Backend First</text><!--entity infra--><g id="elem_infra"><rect fill="#ADD8E6" height="77.2038" rx="7.5" ry="7.5" style="stroke:#181818;stroke-width:0.5;" width="107.1217" x="36.5" y="52.1699"/><text fill="#000000" font-family="sans-serif" font-size="14" font-weight="bold" lengthAdjust="spacing" textLength="59.0518" x="46.5" y="77.1358">1. INFRA</text><text fill="#000000" font-family="sans-serif" font-size="14" lengthAdjust="spacing" textLength="87.1217" x="46.5" y="96.2038">Docker setup</text><text fill="#000000" font-family="sans-serif" font-size="14" lengthAdjust="spacing" textLength="85.4697" x="46.5" y="115.2717">(Module 4 &#9989;)</text></g><!--entity be--><g id="elem_be"><rect fill="#90EE90" height="77.2038" rx="7.5" ry="7.5" style="stroke:#181818;stroke-width:0.5;" width="112.6936" x="271.5" y="52.1699"/><text fill="#000000" font-family="sans-serif" font-size="14" font-weight="bold" lengthAdjust="spacing" textLength="32.8859" x="281.5" y="77.1358">2. BE</text><text fill="#000000" font-family="sans-serif" font-size="14" lengthAdjust="spacing" textLength="92.6936" x="281.5" y="96.2038">Business logic</text><text fill="#000000" font-family="sans-serif" font-size="14" lengthAdjust="spacing" textLength="72.6737" x="281.5" y="115.2717">+ unit tests</text></g><!--entity fe--><g id="elem_fe"><rect fill="#FFFFE0" height="77.2038" rx="7.5" ry="7.5" style="stroke:#181818;stroke-width:0.5;" width="120.9396" x="458.5" y="52.1699"/><text fill="#000000" font-family="sans-serif" font-size="14" font-weight="bold" lengthAdjust="spacing" textLength="31.1639" x="468.5" y="77.1358">3. FE</text><text fill="#000000" font-family="sans-serif" font-size="14" lengthAdjust="spacing" textLength="100.9396" x="468.5" y="96.2038">UI components</text><text fill="#000000" font-family="sans-serif" font-size="14" lengthAdjust="spacing" textLength="87.4577" x="468.5" y="115.2717">(if applicable)</text></g><!--entity e2e--><g id="elem_e2e"><rect fill="#F08080" height="77.2038" rx="7.5" ry="7.5" style="stroke:#181818;stroke-width:0.5;" width="93.1917" x="684.5" y="52.1699"/><text fill="#000000" font-family="sans-serif" font-size="14" font-weight="bold" lengthAdjust="spacing" textLength="39.3258" x="694.5" y="77.1358">4. E2E</text><text fill="#000000" font-family="sans-serif" font-size="14" lengthAdjust="spacing" textLength="54.6838" x="694.5" y="96.2038">Full flow</text><text fill="#000000" font-family="sans-serif" font-size="14" lengthAdjust="spacing" textLength="73.1917" x="694.5" y="115.2717">verification</text></g><g id="elem_GMN9"><path d="M6,190.1699 L6,238.3057 A0,0 0 0 0 6,238.3057 L174.3774,238.3057 A0,0 0 0 0 174.3774,238.3057 L174.3774,200.1699 L164.3774,190.1699 L94,190.1699 L90,129.4499 L86,190.1699 L6,190.1699 A0,0 0 0 0 6,190.1699 " fill="#FEFFDD" style="stroke:#181818;stroke-width:0.5;"/><path d="M164.3774,190.1699 L164.3774,200.1699 L174.3774,200.1699 L164.3774,190.1699 " fill="#FEFFDD" style="stroke:#181818;stroke-width:0.5;"/><text fill="#000000" font-family="sans-serif" font-size="14" lengthAdjust="spacing" textLength="147.3774" x="12" y="210.1358">Dockerfile, CI pipeline,</text><text fill="#000000" font-family="sans-serif" font-size="14" lengthAdjust="spacing" textLength="110.0816" x="12" y="229.2038">project structure</text></g><g id="elem_GMN12"><path d="M228.5,190.1699 L228.5,238.3057 A0,0 0 0 0 228.5,238.3057 L427.0892,238.3057 A0,0 0 0 0 427.0892,238.3057 L427.0892,200.1699 L417.0892,190.1699 L332,190.1699 L328,129.4499 L324,190.1699 L228.5,190.1699 A0,0 0 0 0 228.5,190.1699 " fill="#FEFFDD" style="stroke:#181818;stroke-width:0.5;"/><path d="M417.0892,190.1699 L417.0892,200.1699 L427.0892,200.1699 L417.0892,190.1699 " fill="#FEFFDD" style="stroke:#181818;stroke-width:0.5;"/><text fill="#000000" font-family="sans-serif" font-size="14" lengthAdjust="spacing" textLength="150.3174" x="234.5" y="210.1358">TDD: one test at a time</text><text fill="#000000" font-family="sans-serif" font-size="14" lengthAdjust="spacing" textLength="177.5892" x="234.5" y="229.2038">RED &#8594; GREEN &#8594; REFACTOR</text></g><g id="elem_GMN15"><path d="M656.5,190.1699 L656.5,238.3057 A0,0 0 0 0 656.5,238.3057 L805.3755,238.3057 A0,0 0 0 0 805.3755,238.3057 L805.3755,200.1699 L795.3755,190.1699 L735,190.1699 L731,129.4499 L727,190.1699 L656.5,190.1699 A0,0 0 0 0 656.5,190.1699 " fill="#FEFFDD" style="stroke:#181818;stroke-width:0.5;"/><path d="M795.3755,190.1699 L795.3755,200.1699 L805.3755,200.1699 L795.3755,190.1699 " fill="#FEFFDD" style="stroke:#181818;stroke-width:0.5;"/><text fill="#000000" font-family="sans-serif" font-size="14" lengthAdjust="spacing" textLength="127.8755" x="662.5" y="210.1358">Verify the complete</text><text fill="#000000" font-family="sans-serif" font-size="14" lengthAdjust="spacing" textLength="108.9056" x="662.5" y="229.2038">user story works</text></g><!--link infra to be--><g id="link_infra_be"><path d="M143.71,90.6699 C181.69,90.6699 226.51,90.6699 265.17,90.6699 " fill="none" id="infra-to-be" style="stroke:#181818;stroke-width:1;"/><polygon fill="#181818" points="271.17,90.6699,262.17,86.6699,266.17,90.6699,262.17,94.6699,271.17,90.6699" style="stroke:#181818;stroke-width:1;"/><text fill="#000000" font-family="sans-serif" font-size="14" lengthAdjust="spacing" textLength="91.0137" x="162" y="63.6358">infrastructure</text><text fill="#000000" font-family="sans-serif" font-size="14" lengthAdjust="spacing" textLength="37.2819" x="188.8659" y="82.7038">ready</text></g><!--link be to fe--><g id="link_be_fe"><path d="M384.53,90.6699 C407.74,90.6699 428.66,90.6699 452.29,90.6699 " fill="none" id="be-to-fe" style="stroke:#181818;stroke-width:1;"/><polygon fill="#181818" points="458.29,90.6699,449.29,86.6699,453.29,90.6699,449.29,94.6699,458.29,90.6699" style="stroke:#181818;stroke-width:1;"/><text fill="#000000" font-family="sans-serif" font-size="14" lengthAdjust="spacing" textLength="22.1619" x="410.609" y="63.6358">API</text><text fill="#000000" font-family="sans-serif" font-size="14" lengthAdjust="spacing" textLength="37.3799" x="403" y="82.7038">exists</text></g><!--link fe to e2e--><g id="link_fe_e2e"><path d="M579.75,90.6699 C613.03,90.6699 647.64,90.6699 678.39,90.6699 " fill="none" id="fe-to-e2e" style="stroke:#181818;stroke-width:1;"/><polygon fill="#181818" points="684.39,90.6699,675.39,86.6699,679.39,90.6699,675.39,94.6699,684.39,90.6699" style="stroke:#181818;stroke-width:1;"/><text fill="#000000" font-family="sans-serif" font-size="14" lengthAdjust="spacing" textLength="14.9799" x="624.8449" y="63.6358">UI</text><text fill="#000000" font-family="sans-serif" font-size="14" lengthAdjust="spacing" textLength="68.6697" x="598" y="82.7038">connected</text></g><!--SRC=[TPBFZjCm4CRlVehHSe6oMwcbN7f0wfzaLGbsKTX5Gih5IIQjgMD7zfXILaXSu04GHvwkJy8uORjR8QGSB7-VVpFpJVnMcLOwsK0Xo-tQsM2gXTNMmMwZ28K_wXNMCcXAhQ5twWl2QF98T5YID6kDS2S0ifxY33eOlHHVXI15hAsQLcE3XYGfQ-3QLMmuVFi5SwwDfe9KEKz2FD3E1eFH45PNQJOR37ApjEnpu952cvkdRsmLs3I1m-_lpyv0Ub2cTXAUl5Rh3Srrm5FKU0Zp97BcmIk3teEsQrNcvZa4emW8FVcEK-1VoAL3DAUK5qD8Eyhj2ahRjDRmH9xRKJN8jjMgb8N6lf_wdlC1jRQxKz1a2Ccu8wL1QwZPa9jFw5JDY9XGXy3nFOCJbLg8ViOB5wykNiLMf_tSdbmeAJZCZKDPxGLBHriTRREtgzpWPyLZYlgH66jCuPR5qXh3FM8bXB64K5WYsu2j-nAyt7u7jT9u3eiLjAf5pM6UizGw-v4Vmx4H4PSQEV_G2cJ_pN8v1Owl2nuaVq2gYKgMBE7muoTSPaborPso99qjRgwp_oDv27xvFkQt1zfWjnoD56-3ZxyDMRU7dNLR_q3v0m00]--></g></svg>