<svg xmlns="http://www.w3.org/2000/svg" xmlns:xlink="http://www.w3.org/1999/xlink" contentStyleType="text/css" height="1317px" preserveAspectRatio="none" style="width:530px;height:1317px;background:#FFFFFF;" version="1.1" viewBox="0 0 530 1317" width="530px" zoomAndPan="magnify"><title>Multi-Agent Workflow &#8212; Story by Story</title><defs/><g><text fill="#000000" font-family="sans-serif" font-size="14" font-weight="bold" lengthAdjust="spacing" textLength="273.755" x="126.9647" y="34.9659">Multi-Agent Workflow &#8212; Story by Story</text><rect fill="none" height="17.706" style="stroke:none;stroke-width:1;" width="497.6844" x="15" y="52.3769"/><rect fill="#ADD8E6" height="1252.783" style="stroke:#ADD8E6;stroke-width:1;" width="254.9902" x="15" y="52.3769"/><ellipse cx="141.6881" cy="85.0829" fill="#222222" rx="10" ry="10" style="stroke:#222222;stroke-width:1;"/><rect fill="#F1F1F1" height="55.412" rx="12.5" ry="12.5" style="stroke:#333333;stroke-width:0.5;" width="182.3052" x="50.5355" y="115.0829"/><text fill="#000000" font-family="sans-serif" font-size="13" lengthAdjust="spacing" textLength="121.4591" x="60.5355" y="138.9799">Pick highest priority</text><text fill="#000000" font-family="sans-serif" font-size="13" lengthAdjust="spacing" textLength="162.3052" x="60.5355" y="156.686">unimplemented user story</text><rect fill="#F1F1F1" height="73.118" rx="12.5" ry="12.5" style="stroke:#333333;stroke-width:0.5;" width="161.7781" x="60.799" y="190.495"/><text fill="#000000" font-family="sans-serif" font-size="13" lengthAdjust="spacing" textLength="122.3951" x="70.799" y="214.392">Create GitHub Issue</text><text fill="#000000" font-family="sans-serif" font-size="13" lengthAdjust="spacing" textLength="110.7341" x="70.799" y="232.098">with story content</text><text fill="#000000" font-family="sans-serif" font-size="13" lengthAdjust="spacing" textLength="141.7781" x="70.799" y="249.804">and acceptance criteria</text><rect fill="#F1F1F1" height="55.412" rx="12.5" ry="12.5" style="stroke:#333333;stroke-width:0.5;" width="154.4851" x="64.4455" y="283.613"/><text fill="#000000" font-family="sans-serif" font-size="13" lengthAdjust="spacing" textLength="134.4851" x="74.4455" y="307.51">Create feature branch</text><text fill="#000000" font-family="sans-serif" font-size="13" lengthAdjust="spacing" textLength="75.6991" x="74.4455" y="325.216">for the issue</text><rect fill="#F1F1F1" height="55.412" rx="12.5" ry="12.5" style="stroke:#333333;stroke-width:0.5;" width="121.0621" x="81.157" y="1016.9238"/><text fill="#000000" font-family="sans-serif" font-size="13" lengthAdjust="spacing" textLength="59.566" x="91.157" y="1040.8208">Create PR</text><text fill="#000000" font-family="sans-serif" font-size="13" lengthAdjust="spacing" textLength="101.0621" x="91.157" y="1058.5268">closing the issue</text><rect fill="#F1F1F1" height="55.412" rx="12.5" ry="12.5" style="stroke:#333333;stroke-width:0.5;" width="107.5551" x="87.9105" y="1092.3358"/><text fill="#000000" font-family="sans-serif" font-size="13" lengthAdjust="spacing" textLength="87.5551" x="97.9105" y="1116.2328">Add instructor</text><text fill="#000000" font-family="sans-serif" font-size="13" lengthAdjust="spacing" textLength="69.81" x="97.9105" y="1133.9388">as reviewer</text><polygon fill="#F1F1F1" points="100.465,1167.7478,182.9111,1167.7478,194.9111,1179.7478,182.9111,1191.7478,100.465,1191.7478,88.465,1179.7478,100.465,1167.7478" style="stroke:#333333;stroke-width:0.5;"/><text fill="#000000" font-family="sans-serif" font-size="13" lengthAdjust="spacing" textLength="82.4461" x="100.465" y="1184.7918">More stories?</text><text fill="#000000" font-family="sans-serif" font-size="13" lengthAdjust="spacing" textLength="20.189" x="68.276" y="1175.9388">yes</text><text fill="#000000" font-family="sans-serif" font-size="13" lengthAdjust="spacing" textLength="15.899" x="194.9111" y="1175.9388">no</text><rect fill="#F1F1F1" height="37.706" rx="12.5" ry="12.5" style="stroke:#333333;stroke-width:0.5;" width="108.8811" x="21" y="1201.7478"/><text fill="#000000" font-family="sans-serif" font-size="13" lengthAdjust="spacing" textLength="88.8811" x="31" y="1225.6449">Pick next story</text><rect fill="#F1F1F1" height="55.412" rx="12.5" ry="12.5" style="stroke:#333333;stroke-width:0.5;" width="116.1091" x="149.8811" y="1201.7478"/><text fill="#000000" font-family="sans-serif" font-size="13" lengthAdjust="spacing" textLength="89.6481" x="159.8811" y="1225.6449">All core stories</text><text fill="#000000" font-family="sans-serif" font-size="13" lengthAdjust="spacing" textLength="96.1091" x="159.8811" y="1243.3509">implemented &#9989;</text><ellipse cx="207.9356" cy="1288.1599" fill="none" rx="11" ry="11" style="stroke:#222222;stroke-width:1;"/><ellipse cx="207.9356" cy="1288.1599" fill="#222222" rx="6" ry="6" style="stroke:#222222;stroke-width:1;"/><line style="stroke:#000000;stroke-width:1.5;" x1="15" x2="15" y1="52.3769" y2="1305.1599"/><rect fill="#90EE90" height="1252.783" style="stroke:#90EE90;stroke-width:1;" width="228.6942" x="269.9902" y="52.3769"/><rect fill="#F1F1F1" height="55.412" rx="12.5" ry="12.5" style="stroke:#333333;stroke-width:0.5;" width="142.4471" x="302.1137" y="359.0251"/><text fill="#000000" font-family="sans-serif" font-size="13" lengthAdjust="spacing" textLength="91.9621" x="312.1137" y="382.9221">Read issue and</text><text fill="#000000" font-family="sans-serif" font-size="13" lengthAdjust="spacing" textLength="122.4471" x="312.1137" y="400.6281">user story scenarios</text><rect fill="#F1F1F1" height="55.412" rx="12.5" ry="12.5" style="stroke:#333333;stroke-width:0.5;" width="147.7511" x="299.4617" y="478.4371"/><text fill="#000000" font-family="sans-serif" font-size="13" lengthAdjust="spacing" textLength="32.838" x="309.4617" y="502.3341">Write</text><text fill="#000000" font-family="sans-serif" font-size="13" font-weight="bold" lengthAdjust="spacing" textLength="28.197" x="345.6797" y="502.3341">ONE</text><text fill="#000000" font-family="sans-serif" font-size="13" lengthAdjust="spacing" textLength="22.945" x="377.2568" y="502.3341">test</text><text fill="#000000" font-family="sans-serif" font-size="13" lengthAdjust="spacing" textLength="127.7511" x="309.4617" y="520.0401">(GIVEN-WHEN-THEN)</text><rect fill="#F1F1F1" height="37.706" rx="12.5" ry="12.5" style="stroke:#333333;stroke-width:0.5;" width="166.6142" x="290.0302" y="553.8491"/><text fill="#000000" font-family="sans-serif" font-size="13" lengthAdjust="spacing" textLength="146.6142" x="300.0302" y="577.7461">Run test &#8594; confirm &#128308; RED</text><rect fill="#F1F1F1" height="55.412" rx="12.5" ry="12.5" style="stroke:#333333;stroke-width:0.5;" width="129.2001" x="308.7372" y="611.5551"/><text fill="#000000" font-family="sans-serif" font-size="13" lengthAdjust="spacing" textLength="109.2001" x="318.7372" y="635.4521">Write just enough</text><text fill="#000000" font-family="sans-serif" font-size="13" lengthAdjust="spacing" textLength="97.6431" x="318.7372" y="653.1582">implementation</text><rect fill="#F1F1F1" height="37.706" rx="12.5" ry="12.5" style="stroke:#333333;stroke-width:0.5;" width="194.6942" x="275.9902" y="686.9672"/><text fill="#000000" font-family="sans-serif" font-size="13" lengthAdjust="spacing" textLength="174.6942" x="285.9902" y="710.8642">Run test &#8594; confirm &#9989; GREEN</text><rect fill="#F1F1F1" height="55.412" rx="12.5" ry="12.5" style="stroke:#333333;stroke-width:0.5;" width="124.3121" x="311.1812" y="744.6732"/><text fill="#000000" font-family="sans-serif" font-size="13" lengthAdjust="spacing" textLength="24.154" x="321.1812" y="768.5702">Run</text><text fill="#000000" font-family="sans-serif" font-size="13" font-weight="bold" lengthAdjust="spacing" textLength="23.66" x="348.7153" y="768.5702">ALL</text><text fill="#000000" font-family="sans-serif" font-size="13" lengthAdjust="spacing" textLength="29.172" x="375.7553" y="768.5702">tests</text><text fill="#000000" font-family="sans-serif" font-size="13" lengthAdjust="spacing" textLength="104.3121" x="321.1812" y="786.2762">&#8594; no regressions</text><rect fill="#F1F1F1" height="37.706" rx="12.5" ry="12.5" style="stroke:#333333;stroke-width:0.5;" width="131.9561" x="307.3592" y="820.0852"/><text fill="#000000" font-family="sans-serif" font-size="13" lengthAdjust="spacing" textLength="111.9561" x="317.3592" y="843.9822">Refactor if needed</text><rect fill="#F1F1F1" height="55.412" rx="12.5" ry="12.5" style="stroke:#333333;stroke-width:0.5;" width="169.5261" x="288.5742" y="877.7912"/><text fill="#000000" font-family="sans-serif" font-size="13" lengthAdjust="spacing" textLength="78.1171" x="298.5742" y="901.6882">Commit with</text><text fill="#000000" font-family="sans-serif" font-size="13" lengthAdjust="spacing" textLength="149.5261" x="298.5742" y="919.3943">story/scenario reference</text><polygon fill="#F1F1F1" points="373.3373,434.4371,385.3373,446.4371,373.3373,458.4371,361.3373,446.4371,373.3373,434.4371" style="stroke:#333333;stroke-width:0.5;"/><polygon fill="#F1F1F1" points="323.6772,953.2033,422.9973,953.2033,434.9973,965.2033,422.9973,977.2033,323.6772,977.2033,311.6772,965.2033,323.6772,953.2033" style="stroke:#333333;stroke-width:0.5;"/><text fill="#000000" font-family="sans-serif" font-size="13" lengthAdjust="spacing" textLength="99.3201" x="323.6772" y="970.2473">More scenarios?</text><text fill="#000000" font-family="sans-serif" font-size="13" lengthAdjust="spacing" textLength="20.189" x="434.9973" y="961.3943">yes</text><line style="stroke:#000000;stroke-width:1.5;" x1="269.9902" x2="269.9902" y1="52.3769" y2="1305.1599"/><line style="stroke:#000000;stroke-width:1.5;" x1="513.6844" x2="513.6844" y1="52.3769" y2="1305.1599"/><line style="stroke:#181818;stroke-width:1;" x1="141.6881" x2="141.6881" y1="95.0829" y2="115.0829"/><polygon fill="#181818" points="137.6881,105.0829,141.6881,115.0829,145.6881,105.0829,141.6881,109.0829" style="stroke:#181818;stroke-width:1;"/><line style="stroke:#181818;stroke-width:1;" x1="141.6881" x2="141.6881" y1="170.495" y2="190.495"/><polygon fill="#181818" points="137.6881,180.495,141.6881,190.495,145.6881,180.495,141.6881,184.495" style="stroke:#181818;stroke-width:1;"/><line style="stroke:#181818;stroke-width:1;" x1="141.6881" x2="141.6881" y1="263.613" y2="283.613"/><polygon fill="#181818" points="137.6881,273.613,141.6881,283.613,145.6881,273.613,141.6881,277.613" style="stroke:#181818;stroke-width:1;"/><line style="stroke:#181818;stroke-width:1;" x1="141.6881" x2="141.6881" y1="1072.3358" y2="1092.3358"/><polygon fill="#181818" points="137.6881,1082.3358,141.6881,1092.3358,145.6881,1082.3358,141.6881,1086.3358" style="stroke:#181818;stroke-width:1;"/><line style="stroke:#181818;stroke-width:1;" x1="207.9356" x2="207.9356" y1="1257.1599" y2="1277.1599"/><polygon fill="#181818" points="203.9356,1267.1599,207.9356,1277.1599,211.9356,1267.1599,207.9356,1271.1599" style="stroke:#181818;stroke-width:1;"/><line style="stroke:#181818;stroke-width:1;" x1="88.465" x2="75.4405" y1="1179.7478" y2="1179.7478"/><line style="stroke:#181818;stroke-width:1;" x1="75.4405" x2="75.4405" y1="1179.7478" y2="1201.7478"/><polygon fill="#181818" points="71.4405,1191.7478,75.4405,1201.7478,79.4405,1191.7478,75.4405,1195.7478" style="stroke:#181818;stroke-width:1;"/><line style="stroke:#181818;stroke-width:1;" x1="194.9111" x2="207.9356" y1="1179.7478" y2="1179.7478"/><line style="stroke:#181818;stroke-width:1;" x1="207.9356" x2="207.9356" y1="1179.7478" y2="1201.7478"/><polygon fill="#181818" points="203.9356,1191.7478,207.9356,1201.7478,211.9356,1191.7478,207.9356,1195.7478" style="stroke:#181818;stroke-width:1;"/><line style="stroke:#181818;stroke-width:1;" x1="141.6881" x2="141.6881" y1="1147.7478" y2="1167.7478"/><polygon fill="#181818" points="137.6881,1157.7478,141.6881,1167.7478,145.6881,1157.7478,141.6881,1161.7478" style="stroke:#181818;stroke-width:1;"/><line style="stroke:#181818;stroke-width:1;" x1="373.3373" x2="373.3373" y1="533.8491" y2="553.8491"/><polygon fill="#181818" points="369.3373,543.8491,373.3373,553.8491,377.3373,543.8491,373.3373,547.8491" style="stroke:#181818;stroke-width:1;"/><line style="stroke:#181818;stroke-width:1;" x1="373.3373" x2="373.3373" y1="591.5551" y2="611.5551"/><polygon fill="#181818" points="369.3373,601.5551,373.3373,611.5551,377.3373,601.5551,373.3373,605.5551" style="stroke:#181818;stroke-width:1;"/><line style="stroke:#181818;stroke-width:1;" x1="373.3373" x2="373.3373" y1="666.9672" y2="686.9672"/><polygon fill="#181818" points="369.3373,676.9672,373.3373,686.9672,377.3373,676.9672,373.3373,680.9672" style="stroke:#181818;stroke-width:1;"/><line style="stroke:#181818;stroke-width:1;" x1="373.3373" x2="373.3373" y1="724.6732" y2="744.6732"/><polygon fill="#181818" points="369.3373,734.6732,373.3373,744.6732,377.3373,734.6732,373.3373,738.6732" style="stroke:#181818;stroke-width:1;"/><line style="stroke:#181818;stroke-width:1;" x1="373.3373" x2="373.3373" y1="800.0852" y2="820.0852"/><polygon fill="#181818" points="369.3373,810.0852,373.3373,820.0852,377.3373,810.0852,373.3373,814.0852" style="stroke:#181818;stroke-width:1;"/><line style="stroke:#181818;stroke-width:1;" x1="373.3373" x2="373.3373" y1="857.7912" y2="877.7912"/><polygon fill="#181818" points="369.3373,867.7912,373.3373,877.7912,377.3373,867.7912,373.3373,871.7912" style="stroke:#181818;stroke-width:1;"/><line style="stroke:#181818;stroke-width:1;" x1="373.3373" x2="373.3373" y1="458.4371" y2="478.4371"/><polygon fill="#181818" points="369.3373,468.4371,373.3373,478.4371,377.3373,468.4371,373.3373,472.4371" style="stroke:#181818;stroke-width:1;"/><line style="stroke:#181818;stroke-width:1;" x1="434.9973" x2="482.6844" y1="965.2033" y2="965.2033"/><polygon fill="#181818" points="478.6844,715.8202,482.6844,705.8202,486.6844,715.8202,482.6844,711.8202" style="stroke:#181818;stroke-width:1;"/><line style="stroke:#181818;stroke-width:1;" x1="482.6844" x2="482.6844" y1="446.4371" y2="965.2033"/><line style="stroke:#181818;stroke-width:1;" x1="482.6844" x2="385.3373" y1="446.4371" y2="446.4371"/><polygon fill="#181818" points="395.3373,442.4371,385.3373,446.4371,395.3373,450.4371,391.3373,446.4371" style="stroke:#181818;stroke-width:1;"/><line style="stroke:#181818;stroke-width:1;" x1="373.3373" x2="373.3373" y1="933.2033" y2="953.2033"/><polygon fill="#181818" points="369.3373,943.2033,373.3373,953.2033,377.3373,943.2033,373.3373,947.2033" style="stroke:#181818;stroke-width:1;"/><line style="stroke:#181818;stroke-width:1;" x1="373.3373" x2="373.3373" y1="414.4371" y2="434.4371"/><polygon fill="#181818" points="369.3373,424.4371,373.3373,434.4371,377.3373,424.4371,373.3373,428.4371" style="stroke:#181818;stroke-width:1;"/><line style="stroke:#181818;stroke-width:1;" x1="141.6881" x2="141.6881" y1="339.0251" y2="344.0251"/><line style="stroke:#181818;stroke-width:1;" x1="141.6881" x2="373.3373" y1="344.0251" y2="344.0251"/><line style="stroke:#181818;stroke-width:1;" x1="373.3373" x2="373.3373" y1="344.0251" y2="359.0251"/><polygon fill="#181818" points="369.3373,349.0251,373.3373,359.0251,377.3373,349.0251,373.3373,353.0251" style="stroke:#181818;stroke-width:1;"/><line style="stroke:#181818;stroke-width:1;" x1="373.3373" x2="373.3373" y1="977.2033" y2="1001.9238"/><line style="stroke:#181818;stroke-width:1;" x1="373.3373" x2="141.6881" y1="1001.9238" y2="1001.9238"/><line style="stroke:#181818;stroke-width:1;" x1="141.6881" x2="141.6881" y1="1001.9238" y2="1016.9238"/><polygon fill="#181818" points="137.6881,1006.9238,141.6881,1016.9238,145.6881,1006.9238,141.6881,1010.9238" style="stroke:#181818;stroke-width:1;"/><text fill="#000000" font-family="sans-serif" font-size="13" lengthAdjust="spacing" textLength="15.899" x="377.3373" y="995.4238">no</text><text fill="#000000" font-family="sans-serif" font-size="13" lengthAdjust="spacing" textLength="57.2521" x="113.8691" y="66.2739">Git Agent</text><text fill="#000000" font-family="sans-serif" font-size="13" lengthAdjust="spacing" textLength="98.2151" x="335.2297" y="66.2739">TDD/BDD Agent</text><!--SRC=[TLDBRjj03DtFAGXaOmimqYOx6MZXNvq0ZXiuGRtHPYnHqjGIHvXFN1TUT9CUeCYoG2_H4_a4FK8f-Pi2rM8W31yV7nyvTgceaaQMi93nCZFQKpBGXJQmofL3OO_n15Ff2_T1atjGNn7UNfy5xKgLXIISgyJbS7NrvYmcOwUUb5ltjKdGxCWlhfjF2ATSWN37nAhJov0SpBLPfeLUmVRR2pmuRTQmMEz-XDXSJ5IMktxXSJDM3fgKpU5wR11fypWSNlQ7mqDCd0EjayQ9y5x5IyWv1Qs3oYXjM5z4dbHP5LWo51Fm5WtOkcvNX0E3qY4mrOrVmAsr7YDQAMwsGK3Cjd1QH98IxZZ6oacA4M9cHgFaYIBbqnk4XM507b7AThWSGTMSNPRxZ_vmXZBPHO79MULH5zWOIR9yota6AsOM0E6yhWb1y74w2W9mt6D4hV7jfz6qCx_Xuv6FThT6pZmrSTX-_r6ta2fJmfzVBxzXDXfsJroVFMEGjCzOyD4ZwPIc__DiVpx3U3OQJO-G8EXD9dj9Dg8QJ1eCPWQjPIwxG_AYnTmUg1G8CS6akHxeikH1rfv7rBH_UMYVAL8qo7vtzpRKsyjxrRhJxFJHfVTjzX5QQxHjqNb7kljwEGuJkfz551VQAihE9nFs4fu3bpQ-biUZjbpuIU4A3JEnsdqv3YgiYt4oxSi1d5VYTfeL9FpY3Yi6_CASZ7E1XMNbfEkai5SKREY9DNgrecnndSYnIY0bAXL_0G00]--></g></svg>