<svg xmlns="http://www.w3.org/2000/svg" xmlns:xlink="http://www.w3.org/1999/xlink" contentStyleType="text/css" height="901px" preserveAspectRatio="none" style="width:788px;height:901px;background:#FFFFFF;" version="1.1" viewBox="0 0 788 901" width="788px" zoomAndPan="magnify"><title>TDD/BDD Agent Cycle &#8212; One Scenario at a Time</title><defs/><g><text fill="#000000" font-family="sans-serif" font-size="14" font-weight="bold" lengthAdjust="spacing" textLength="332.6807" x="226.6341" y="34.9659">TDD/BDD Agent Cycle &#8212; One Scenario at a Time</text><ellipse cx="550.0414" cy="60.0679" fill="#222222" rx="10" ry="10" style="stroke:#222222;stroke-width:1;"/><rect fill="#F1F1F1" height="58.1358" rx="12.5" ry="12.5" style="stroke:#181818;stroke-width:0.5;" width="138.2575" x="480.9127" y="90.0679"/><text fill="#000000" font-family="sans-serif" font-size="14" lengthAdjust="spacing" textLength="118.2575" x="490.9127" y="115.0339">Pick next scenario</text><text fill="#000000" font-family="sans-serif" font-size="14" lengthAdjust="spacing" textLength="112.6996" x="490.9127" y="134.1018">from user stories</text><rect fill="#F1F1F1" height="58.1358" rx="12.5" ry="12.5" style="stroke:#181818;stroke-width:0.5;" width="157.5774" x="471.2527" y="168.2038"/><text fill="#000000" font-family="sans-serif" font-size="14" lengthAdjust="spacing" textLength="96.7116" x="481.2527" y="193.1697">Write ONE test</text><text fill="#000000" font-family="sans-serif" font-size="14" lengthAdjust="spacing" textLength="137.5774" x="481.2527" y="212.2376">(GIVEN-WHEN-THEN)</text><rect fill="#F1F1F1" height="39.0679" rx="12.5" ry="12.5" style="stroke:#181818;stroke-width:0.5;" width="74.3618" x="512.8605" y="246.3396"/><text fill="#000000" font-family="sans-serif" font-size="14" lengthAdjust="spacing" textLength="54.3618" x="522.8605" y="271.3055">Run test</text><polygon fill="#F1F1F1" points="518.1635,305.4075,581.9193,305.4075,593.9193,317.4075,581.9193,329.4075,518.1635,329.4075,506.1635,317.4075,518.1635,305.4075" style="stroke:#181818;stroke-width:0.5;"/><text fill="#000000" font-family="sans-serif" font-size="14" lengthAdjust="spacing" textLength="63.7558" x="518.1635" y="322.8395">Test fails?</text><text fill="#000000" font-family="sans-serif" font-size="14" lengthAdjust="spacing" textLength="73.3737" x="432.7899" y="313.3055">yes &#8212; &#128308; RED</text><text fill="#000000" font-family="sans-serif" font-size="14" lengthAdjust="spacing" textLength="163.6174" x="593.9193" y="313.3055">no &#8212; test already passes</text><rect fill="#F1F1F1" height="58.1358" rx="12.5" ry="12.5" style="stroke:#181818;stroke-width:0.5;" width="137.5995" x="327.7619" y="339.4075"/><text fill="#000000" font-family="sans-serif" font-size="14" lengthAdjust="spacing" textLength="117.5995" x="337.7619" y="364.3734">Write just enough</text><text fill="#000000" font-family="sans-serif" font-size="14" lengthAdjust="spacing" textLength="105.1536" x="337.7619" y="383.4414">implementation</text><rect fill="#F1F1F1" height="39.0679" rx="12.5" ry="12.5" style="stroke:#181818;stroke-width:0.5;" width="74.3618" x="359.3808" y="432.5433"/><text fill="#000000" font-family="sans-serif" font-size="14" lengthAdjust="spacing" textLength="54.3618" x="369.3808" y="457.5093">Run test</text><polygon fill="#F1F1F1" points="355.7449,491.6113,437.3786,491.6113,449.3786,503.6113,437.3786,515.6113,355.7449,515.6113,343.7449,503.6113,355.7449,491.6113" style="stroke:#181818;stroke-width:0.5;"/><text fill="#000000" font-family="sans-serif" font-size="14" lengthAdjust="spacing" textLength="81.6337" x="355.7449" y="509.0432">Test passes?</text><text fill="#000000" font-family="sans-serif" font-size="14" lengthAdjust="spacing" textLength="103.6136" x="240.1313" y="499.5093">yes &#8212; &#9989; GREEN</text><text fill="#000000" font-family="sans-serif" font-size="14" lengthAdjust="spacing" textLength="17.1219" x="449.3786" y="499.5093">no</text><rect fill="#F1F1F1" height="39.0679" rx="12.5" ry="12.5" style="stroke:#181818;stroke-width:0.5;" width="108.3257" x="213.406" y="525.6113"/><text fill="#000000" font-family="sans-serif" font-size="14" lengthAdjust="spacing" textLength="88.3257" x="223.406" y="550.5772">Run ALL tests</text><polygon fill="#F1F1F1" points="239.6879,584.6792,295.4497,584.6792,307.4497,596.6792,295.4497,608.6792,239.6879,608.6792,227.6879,596.6792,239.6879,584.6792" style="stroke:#181818;stroke-width:0.5;"/><text fill="#000000" font-family="sans-serif" font-size="14" lengthAdjust="spacing" textLength="55.7618" x="239.6879" y="602.1111">All pass?</text><text fill="#000000" font-family="sans-serif" font-size="14" lengthAdjust="spacing" textLength="21.7419" x="205.946" y="592.5772">yes</text><text fill="#000000" font-family="sans-serif" font-size="14" lengthAdjust="spacing" textLength="108.5136" x="307.4497" y="592.5772">no &#8212; regression</text><rect fill="#F1F1F1" height="58.1358" rx="12.5" ry="12.5" style="stroke:#181818;stroke-width:0.5;" width="136.4795" x="100.8997" y="618.6792"/><text fill="#000000" font-family="sans-serif" font-size="14" lengthAdjust="spacing" textLength="116.4795" x="110.8997" y="643.6451">Check refactoring</text><text fill="#000000" font-family="sans-serif" font-size="14" lengthAdjust="spacing" textLength="89.1797" x="110.8997" y="662.713">opportunities</text><rect fill="#F1F1F1" height="58.1358" rx="12.5" ry="12.5" style="stroke:#181818;stroke-width:0.5;" width="134.6176" x="101.8307" y="696.815"/><text fill="#000000" font-family="sans-serif" font-size="14" lengthAdjust="spacing" textLength="84.1257" x="111.8307" y="721.7809">Commit with</text><text fill="#000000" font-family="sans-serif" font-size="14" lengthAdjust="spacing" textLength="114.6176" x="111.8307" y="740.8489">Story/Scenario ID</text><polygon fill="#F1F1F1" points="115.6597,774.9508,222.6193,774.9508,234.6193,786.9508,222.6193,798.9508,115.6597,798.9508,103.6597,786.9508,115.6597,774.9508" style="stroke:#181818;stroke-width:0.5;"/><text fill="#000000" font-family="sans-serif" font-size="14" lengthAdjust="spacing" textLength="106.9596" x="115.6597" y="792.3828">More scenarios?</text><text fill="#000000" font-family="sans-serif" font-size="14" lengthAdjust="spacing" textLength="21.7419" x="81.9178" y="782.8489">yes</text><text fill="#000000" font-family="sans-serif" font-size="14" lengthAdjust="spacing" textLength="17.1219" x="234.6193" y="782.8489">no</text><rect fill="#F1F1F1" height="39.0679" rx="12.5" ry="12.5" style="stroke:#181818;stroke-width:0.5;" width="165.3194" x="11" y="808.9508"/><text fill="#000000" font-family="sans-serif" font-size="14" lengthAdjust="spacing" textLength="145.3194" x="21" y="833.9168">Move to next scenario</text><rect fill="#F1F1F1" height="39.0679" rx="12.5" ry="12.5" style="stroke:#181818;stroke-width:0.5;" width="70.7218" x="209.2584" y="808.9508"/><text fill="#000000" font-family="sans-serif" font-size="14" lengthAdjust="spacing" textLength="50.7218" x="219.2584" y="833.9168">Done &#9989;</text><ellipse cx="244.6193" cy="879.0188" fill="none" rx="11" ry="11" style="stroke:#222222;stroke-width:1;"/><ellipse cx="244.6193" cy="879.0188" fill="#222222" rx="6" ry="6" style="stroke:#222222;stroke-width:1;"/><rect fill="#F1F1F1" height="39.0679" rx="12.5" ry="12.5" style="stroke:#181818;stroke-width:0.5;" width="112.0357" x="309.9802" y="618.6792"/><text fill="#000000" font-family="sans-serif" font-size="14" lengthAdjust="spacing" textLength="92.0357" x="319.9802" y="643.6451">Fix regression</text><rect fill="#F1F1F1" height="39.0679" rx="12.5" ry="12.5" style="stroke:#181818;stroke-width:0.5;" width="147.0775" x="452.0159" y="525.6113"/><text fill="#000000" font-family="sans-serif" font-size="14" lengthAdjust="spacing" textLength="127.0775" x="462.0159" y="550.5772">Fix implementation</text><rect fill="#F1F1F1" height="77.2038" rx="12.5" ry="12.5" style="stroke:#181818;stroke-width:0.5;" width="148.8555" x="629.0934" y="339.4075"/><text fill="#000000" font-family="sans-serif" font-size="14" lengthAdjust="spacing" textLength="105.4476" x="639.0934" y="364.3734">Test is wrong or</text><text fill="#000000" font-family="sans-serif" font-size="14" lengthAdjust="spacing" textLength="128.8555" x="639.0934" y="383.4414">code already exists.</text><text fill="#000000" font-family="sans-serif" font-size="14" lengthAdjust="spacing" textLength="98.2096" x="639.0934" y="402.5093">Review and fix.</text><line style="stroke:#181818;stroke-width:1;" x1="550.0414" x2="550.0414" y1="70.0679" y2="90.0679"/><polygon fill="#181818" points="546.0414,80.0679,550.0414,90.0679,554.0414,80.0679,550.0414,84.0679" style="stroke:#181818;stroke-width:1;"/><line style="stroke:#181818;stroke-width:1;" x1="550.0414" x2="550.0414" y1="148.2038" y2="168.2038"/><polygon fill="#181818" points="546.0414,158.2038,550.0414,168.2038,554.0414,158.2038,550.0414,162.2038" style="stroke:#181818;stroke-width:1;"/><line style="stroke:#181818;stroke-width:1;" x1="550.0414" x2="550.0414" y1="226.3396" y2="246.3396"/><polygon fill="#181818" points="546.0414,236.3396,550.0414,246.3396,554.0414,236.3396,550.0414,240.3396" style="stroke:#181818;stroke-width:1;"/><line style="stroke:#181818;stroke-width:1;" x1="396.5617" x2="396.5617" y1="397.5433" y2="432.5433"/><polygon fill="#181818" points="392.5617,422.5433,396.5617,432.5433,400.5617,422.5433,396.5617,426.5433" style="stroke:#181818;stroke-width:1;"/><line style="stroke:#181818;stroke-width:1;" x1="169.1395" x2="169.1395" y1="676.815" y2="696.815"/><polygon fill="#181818" points="165.1395,686.815,169.1395,696.815,173.1395,686.815,169.1395,690.815" style="stroke:#181818;stroke-width:1;"/><line style="stroke:#181818;stroke-width:1;" x1="244.6193" x2="244.6193" y1="848.0188" y2="868.0188"/><polygon fill="#181818" points="240.6193,858.0188,244.6193,868.0188,248.6193,858.0188,244.6193,862.0188" style="stroke:#181818;stroke-width:1;"/><line style="stroke:#181818;stroke-width:1;" x1="103.6597" x2="93.6597" y1="786.9508" y2="786.9508"/><line style="stroke:#181818;stroke-width:1;" x1="93.6597" x2="93.6597" y1="786.9508" y2="808.9508"/><polygon fill="#181818" points="89.6597,798.9508,93.6597,808.9508,97.6597,798.9508,93.6597,802.9508" style="stroke:#181818;stroke-width:1;"/><line style="stroke:#181818;stroke-width:1;" x1="234.6193" x2="244.6193" y1="786.9508" y2="786.9508"/><line style="stroke:#181818;stroke-width:1;" x1="244.6193" x2="244.6193" y1="786.9508" y2="808.9508"/><polygon fill="#181818" points="240.6193,798.9508,244.6193,808.9508,248.6193,798.9508,244.6193,802.9508" style="stroke:#181818;stroke-width:1;"/><line style="stroke:#181818;stroke-width:1;" x1="169.1395" x2="169.1395" y1="754.9508" y2="774.9508"/><polygon fill="#181818" points="165.1395,764.9508,169.1395,774.9508,173.1395,764.9508,169.1395,768.9508" style="stroke:#181818;stroke-width:1;"/><line style="stroke:#181818;stroke-width:1;" x1="227.6879" x2="169.1395" y1="596.6792" y2="596.6792"/><line style="stroke:#181818;stroke-width:1;" x1="169.1395" x2="169.1395" y1="596.6792" y2="618.6792"/><polygon fill="#181818" points="165.1395,608.6792,169.1395,618.6792,173.1395,608.6792,169.1395,612.6792" style="stroke:#181818;stroke-width:1;"/><line style="stroke:#181818;stroke-width:1;" x1="307.4497" x2="365.998" y1="596.6792" y2="596.6792"/><line style="stroke:#181818;stroke-width:1;" x1="365.998" x2="365.998" y1="596.6792" y2="618.6792"/><polygon fill="#181818" points="361.998,608.6792,365.998,618.6792,369.998,608.6792,365.998,612.6792" style="stroke:#181818;stroke-width:1;"/><line style="stroke:#181818;stroke-width:1;" x1="267.5688" x2="267.5688" y1="564.6792" y2="584.6792"/><polygon fill="#181818" points="263.5688,574.6792,267.5688,584.6792,271.5688,574.6792,267.5688,578.6792" style="stroke:#181818;stroke-width:1;"/><line style="stroke:#181818;stroke-width:1;" x1="343.7449" x2="267.5688" y1="503.6113" y2="503.6113"/><line style="stroke:#181818;stroke-width:1;" x1="267.5688" x2="267.5688" y1="503.6113" y2="525.6113"/><polygon fill="#181818" points="263.5688,515.6113,267.5688,525.6113,271.5688,515.6113,267.5688,519.6113" style="stroke:#181818;stroke-width:1;"/><line style="stroke:#181818;stroke-width:1;" x1="449.3786" x2="525.5546" y1="503.6113" y2="503.6113"/><line style="stroke:#181818;stroke-width:1;" x1="525.5546" x2="525.5546" y1="503.6113" y2="525.6113"/><polygon fill="#181818" points="521.5546,515.6113,525.5546,525.6113,529.5546,515.6113,525.5546,519.6113" style="stroke:#181818;stroke-width:1;"/><line style="stroke:#181818;stroke-width:1;" x1="396.5617" x2="396.5617" y1="471.6113" y2="491.6113"/><polygon fill="#181818" points="392.5617,481.6113,396.5617,491.6113,400.5617,481.6113,396.5617,485.6113" style="stroke:#181818;stroke-width:1;"/><line style="stroke:#181818;stroke-width:1;" x1="506.1635" x2="396.5617" y1="317.4075" y2="317.4075"/><line style="stroke:#181818;stroke-width:1;" x1="396.5617" x2="396.5617" y1="317.4075" y2="339.4075"/><polygon fill="#181818" points="392.5617,329.4075,396.5617,339.4075,400.5617,329.4075,396.5617,333.4075" style="stroke:#181818;stroke-width:1;"/><line style="stroke:#181818;stroke-width:1;" x1="593.9193" x2="703.5211" y1="317.4075" y2="317.4075"/><line style="stroke:#181818;stroke-width:1;" x1="703.5211" x2="703.5211" y1="317.4075" y2="339.4075"/><polygon fill="#181818" points="699.5211,329.4075,703.5211,339.4075,707.5211,329.4075,703.5211,333.4075" style="stroke:#181818;stroke-width:1;"/><line style="stroke:#181818;stroke-width:1;" x1="550.0414" x2="550.0414" y1="285.4075" y2="305.4075"/><polygon fill="#181818" points="546.0414,295.4075,550.0414,305.4075,554.0414,295.4075,550.0414,299.4075" style="stroke:#181818;stroke-width:1;"/><!--SRC=[RL8xRjj04ErvYYcb8ZO2k8gAG15bnu0_WIJ43PiDEIGd8cU9tQ4bfKgJ6xWCa4laH3v1Zf0XHT8Kx6Qnt7sVsVVejyILSQQ4RoRUPixMd2niOHtiSX8C_72VO6hgGYujovf-8Bo_208XAH0sONZ-AGnXdY4BB0wndZt_V89xHbZ7oCQH1IDWO4Cb1e4NuoG8FdoXU0kCUm7VeI9EdIsXzkZ0YtM4VgR01wUZmFtT4WIzH3ovklwwl7lty5cNZIxJ1hIgkRtMFQKmsUWMKaE5_pW5oP5XSa3VplNlpzDVM2t3QG3GQN-l5OriwooFcCggm5BVOeGipnhKYpZ0e5uPx_6r_FFlNt2rMkfO2kwuyvkRbkzdxLaZCI-ALc7CFpAKiyXHit4QUTp4m5d4jggiavf9sbHwe2rB4jYHwE1hnHxEXyYlmnxM-DrQXqFGRxggtArzH11xsifik4zGJ9ntdrXuX0dR4JsqMhc-_uMXBLOzdXDAWp6pZSjXvj1xJNfu_INjHyUzsCYybpeTeUMzBc_4FF9Ex9jMm1GEJNBe6ct_YxPXyh1pbZEmBkBO9ZWWSK_Qvbd4Atmat87X15BQdpM6dTtHx3y0]--></g></svg>