<svg xmlns="http://www.w3.org/2000/svg" xmlns:xlink="http://www.w3.org/1999/xlink" contentStyleType="text/css" height="749px" preserveAspectRatio="none" style="width:1342px;height:749px;background:#FFFFFF;" version="1.1" viewBox="0 0 1342 749" width="1342px" zoomAndPan="magnify"><title>Synchronous vs Asynchronous</title><defs/><g><text fill="#000000" font-family="sans-serif" font-size="14" font-weight="bold" lengthAdjust="spacing" textLength="211.7352" x="563.8664" y="29.9659">Synchronous vs Asynchronous</text><line style="stroke:#666666;stroke-width:0.5;stroke-dasharray:5.0,5.0;" x1="30.8369" x2="30.8369" y1="98.2038" y2="742.154"/><line style="stroke:#666666;stroke-width:0.5;stroke-dasharray:5.0,5.0;" x1="149.2416" x2="149.2416" y1="98.2038" y2="742.154"/><line style="stroke:#666666;stroke-width:0.5;stroke-dasharray:5.0,5.0;" x1="247.6094" x2="247.6094" y1="98.2038" y2="742.154"/><line style="stroke:#666666;stroke-width:0.5;stroke-dasharray:5.0,5.0;" x1="348.3139" x2="348.3139" y1="98.2038" y2="742.154"/><line style="stroke:#666666;stroke-width:0.5;stroke-dasharray:5.0,5.0;" x1="449.0185" x2="449.0185" y1="98.2038" y2="742.154"/><line style="stroke:#666666;stroke-width:0.5;stroke-dasharray:5.0,5.0;" x1="524.7763" x2="524.7763" y1="98.2038" y2="742.154"/><line style="stroke:#666666;stroke-width:0.5;stroke-dasharray:5.0,5.0;" x1="637.3729" x2="637.3729" y1="98.2038" y2="742.154"/><line style="stroke:#666666;stroke-width:0.5;stroke-dasharray:5.0,5.0;" x1="735.7406" x2="735.7406" y1="98.2038" y2="742.154"/><line style="stroke:#666666;stroke-width:0.5;stroke-dasharray:5.0,5.0;" x1="884.2655" x2="884.2655" y1="98.2038" y2="742.154"/><line style="stroke:#666666;stroke-width:0.5;stroke-dasharray:5.0,5.0;" x1="1015.5331" x2="1015.5331" y1="98.2038" y2="742.154"/><line style="stroke:#666666;stroke-width:0.5;stroke-dasharray:5.0,5.0;" x1="1165.6236" x2="1165.6236" y1="98.2038" y2="742.154"/><line style="stroke:#666666;stroke-width:0.5;stroke-dasharray:5.0,5.0;" x1="1288.4842" x2="1288.4842" y1="98.2038" y2="742.154"/><rect fill="#E2E2F0" height="33.0679" rx="2.5" ry="2.5" style="stroke:#181818;stroke-width:0.5;" width="51.6738" x="5" y="64.1358"/><text fill="#000000" font-family="sans-serif" font-size="14" lengthAdjust="spacing" textLength="37.6738" x="12" y="86.1018">Client</text><rect fill="#E2E2F0" height="33.0679" rx="2.5" ry="2.5" style="stroke:#181818;stroke-width:0.5;" width="96.7957" x="100.8438" y="64.1358"/><text fill="#000000" font-family="sans-serif" font-size="14" lengthAdjust="spacing" textLength="82.7957" x="107.8438" y="86.1018">API Gateway</text><rect fill="#E2E2F0" height="33.0679" rx="2.5" ry="2.5" style="stroke:#181818;stroke-width:0.5;" width="79.9398" x="207.6395" y="64.1358"/><text fill="#000000" font-family="sans-serif" font-size="14" lengthAdjust="spacing" textLength="65.9398" x="214.6395" y="86.1018">Lambda A</text><rect fill="#E2E2F0" height="33.0679" rx="2.5" ry="2.5" style="stroke:#181818;stroke-width:0.5;" width="80.0938" x="308.267" y="64.1358"/><text fill="#000000" font-family="sans-serif" font-size="14" lengthAdjust="spacing" textLength="66.0938" x="315.267" y="86.1018">Lambda B</text><rect fill="#E2E2F0" height="33.0679" rx="2.5" ry="2.5" style="stroke:#181818;stroke-width:0.5;" width="79.8418" x="409.0976" y="64.1358"/><text fill="#000000" font-family="sans-serif" font-size="14" lengthAdjust="spacing" textLength="65.8418" x="416.0976" y="86.1018">Lambda C</text><rect fill="#E2E2F0" height="33.0679" rx="2.5" ry="2.5" style="stroke:#181818;stroke-width:0.5;" width="51.6738" x="498.9393" y="64.1358"/><text fill="#000000" font-family="sans-serif" font-size="14" lengthAdjust="spacing" textLength="37.6738" x="505.9393" y="86.1018">Client</text><rect fill="#E2E2F0" height="33.0679" rx="2.5" ry="2.5" style="stroke:#181818;stroke-width:0.5;" width="96.7957" x="588.975" y="64.1358"/><text fill="#000000" font-family="sans-serif" font-size="14" lengthAdjust="spacing" textLength="82.7957" x="595.975" y="86.1018">API Gateway</text><rect fill="#E2E2F0" height="33.0679" rx="2.5" ry="2.5" style="stroke:#181818;stroke-width:0.5;" width="79.9398" x="695.7707" y="64.1358"/><text fill="#000000" font-family="sans-serif" font-size="14" lengthAdjust="spacing" textLength="65.9398" x="702.7707" y="86.1018">Lambda A</text><rect fill="#E2E2F0" height="33.0679" rx="2.5" ry="2.5" style="stroke:#181818;stroke-width:0.5;" width="94.1077" x="837.2117" y="64.1358"/><text fill="#000000" font-family="sans-serif" font-size="14" lengthAdjust="spacing" textLength="80.1077" x="844.2117" y="86.1018">EventBridge</text><rect fill="#E2E2F0" height="52.1358" rx="2.5" ry="2.5" style="stroke:#181818;stroke-width:0.5;" width="148.4275" x="941.3194" y="45.0679"/><text fill="#000000" font-family="sans-serif" font-size="14" lengthAdjust="spacing" textLength="66.0938" x="982.4862" y="67.0339">Lambda B</text><text fill="#000000" font-family="sans-serif" font-size="14" lengthAdjust="spacing" textLength="134.4275" x="948.3194" y="86.1018">(create subscription)</text><rect fill="#E2E2F0" height="52.1358" rx="2.5" ry="2.5" style="stroke:#181818;stroke-width:0.5;" width="131.7535" x="1099.7469" y="45.0679"/><text fill="#000000" font-family="sans-serif" font-size="14" lengthAdjust="spacing" textLength="65.8418" x="1132.7027" y="67.0339">Lambda C</text><text fill="#000000" font-family="sans-serif" font-size="14" lengthAdjust="spacing" textLength="117.7535" x="1106.7469" y="86.1018">(generate invoice)</text><rect fill="#E2E2F0" height="52.1358" rx="2.5" ry="2.5" style="stroke:#181818;stroke-width:0.5;" width="93.9677" x="1241.5004" y="45.0679"/><text fill="#000000" font-family="sans-serif" font-size="14" lengthAdjust="spacing" textLength="67.2137" x="1254.8773" y="67.0339">Lambda D</text><text fill="#000000" font-family="sans-serif" font-size="14" lengthAdjust="spacing" textLength="79.9677" x="1248.5004" y="86.1018">(send email)</text><rect fill="#FFFFFF" height="3" style="stroke:#FFFFFF;stroke-width:1;" width="1330.4681" x="5" y="128.0568"/><line style="stroke:#444444;stroke-width:1;" x1="5" x2="1335.4681" y1="128.0568" y2="128.0568"/><line style="stroke:#444444;stroke-width:1;" x1="5" x2="1335.4681" y1="131.0568" y2="131.0568"/><rect fill="#FFFFFF" height="25.706" style="stroke:#444444;stroke-width:2;" width="226.7711" x="556.8485" y="116.2038"/><text fill="#444444" font-family="sans-serif" font-size="13" font-weight="bold" lengthAdjust="spacing" textLength="209.3911" x="562.8485" y="134.1008">Synchronous (request-response)</text><polygon fill="#666666" points="137.2416,170.2539,147.2416,174.2539,137.2416,178.2539,141.2416,174.2539" style="stroke:#666666;stroke-width:1;"/><line style="stroke:#666666;stroke-width:1;" x1="30.8369" x2="143.2416" y1="174.2539" y2="174.2539"/><text fill="#666666" font-family="sans-serif" font-size="12" lengthAdjust="spacing" textLength="29.8922" x="45.741" y="168.7379">POST</text><text fill="#666666" font-family="sans-serif" font-size="12" lengthAdjust="spacing" textLength="3.12" x="75.6332" y="168.7379">&#160;</text><text fill="#666666" font-family="sans-serif" font-size="12" lengthAdjust="spacing" textLength="55.5844" x="78.7532" y="168.7379">/checkout</text><polygon fill="#666666" points="235.6094,200.598,245.6094,204.598,235.6094,208.598,239.6094,204.598" style="stroke:#666666;stroke-width:1;"/><line style="stroke:#666666;stroke-width:1;" x1="149.2416" x2="241.6094" y1="204.598" y2="204.598"/><text fill="#666666" font-family="sans-serif" font-size="12" lengthAdjust="spacing" textLength="37.0443" x="179.9034" y="199.082">invoke</text><polygon fill="#666666" points="336.3139,230.9421,346.3139,234.9421,336.3139,238.9421,340.3139,234.9421" style="stroke:#666666;stroke-width:1;"/><line style="stroke:#666666;stroke-width:1;" x1="247.6094" x2="342.3139" y1="234.9421" y2="234.9421"/><text fill="#666666" font-family="sans-serif" font-size="12" lengthAdjust="spacing" textLength="37.0443" x="259.6094" y="229.4261">invoke</text><text fill="#666666" font-family="sans-serif" font-size="12" lengthAdjust="spacing" textLength="3.12" x="296.6536" y="229.4261">&#160;</text><text fill="#666666" font-family="sans-serif" font-size="12" lengthAdjust="spacing" textLength="36.5403" x="299.7737" y="229.4261">(waits)</text><polygon fill="#666666" points="437.0185,261.2862,447.0185,265.2862,437.0185,269.2862,441.0185,265.2862" style="stroke:#666666;stroke-width:1;"/><line style="stroke:#666666;stroke-width:1;" x1="348.3139" x2="443.0185" y1="265.2862" y2="265.2862"/><text fill="#666666" font-family="sans-serif" font-size="12" lengthAdjust="spacing" textLength="37.0443" x="360.3139" y="259.7702">invoke</text><text fill="#666666" font-family="sans-serif" font-size="12" lengthAdjust="spacing" textLength="3.12" x="397.3582" y="259.7702">&#160;</text><text fill="#666666" font-family="sans-serif" font-size="12" lengthAdjust="spacing" textLength="36.5403" x="400.4782" y="259.7702">(waits)</text><polygon fill="#666666" points="359.3139,291.6303,349.3139,295.6303,359.3139,299.6303,355.3139,295.6303" style="stroke:#666666;stroke-width:1;"/><line style="stroke:#666666;stroke-width:1;stroke-dasharray:2.0,2.0;" x1="353.3139" x2="448.0185" y1="295.6303" y2="295.6303"/><text fill="#666666" font-family="sans-serif" font-size="12" lengthAdjust="spacing" textLength="52.0444" x="372.644" y="290.1143">response</text><polygon fill="#666666" points="258.6094,321.9745,248.6094,325.9745,258.6094,329.9745,254.6094,325.9745" style="stroke:#666666;stroke-width:1;"/><line style="stroke:#666666;stroke-width:1;stroke-dasharray:2.0,2.0;" x1="252.6094" x2="347.3139" y1="325.9745" y2="325.9745"/><text fill="#666666" font-family="sans-serif" font-size="12" lengthAdjust="spacing" textLength="52.0444" x="271.9394" y="320.4584">response</text><polygon fill="#666666" points="160.2416,352.3186,150.2416,356.3186,160.2416,360.3186,156.2416,356.3186" style="stroke:#666666;stroke-width:1;"/><line style="stroke:#666666;stroke-width:1;stroke-dasharray:2.0,2.0;" x1="154.2416" x2="246.6094" y1="356.3186" y2="356.3186"/><text fill="#666666" font-family="sans-serif" font-size="12" lengthAdjust="spacing" textLength="52.0444" x="172.4033" y="350.8025">response</text><polygon fill="#666666" points="41.8369,399.0068,31.8369,403.0068,41.8369,407.0068,37.8369,403.0068" style="stroke:#666666;stroke-width:1;"/><line style="stroke:#666666;stroke-width:1;stroke-dasharray:2.0,2.0;" x1="35.8369" x2="148.2416" y1="403.0068" y2="403.0068"/><text fill="#666666" font-family="sans-serif" font-size="12" lengthAdjust="spacing" textLength="52.0444" x="64.0171" y="381.1467">response</text><text fill="#666666" font-family="sans-serif" font-size="12" lengthAdjust="spacing" textLength="29.1362" x="42.8369" y="397.4908">(slow</text><text fill="#666666" font-family="sans-serif" font-size="12" lengthAdjust="spacing" textLength="3.12" x="71.9731" y="397.4908">&#160;</text><text fill="#666666" font-family="sans-serif" font-size="12" lengthAdjust="spacing" textLength="7.2241" x="75.0932" y="397.4908">if</text><text fill="#666666" font-family="sans-serif" font-size="12" lengthAdjust="spacing" textLength="3.12" x="82.3172" y="397.4908">&#160;</text><text fill="#666666" font-family="sans-serif" font-size="12" lengthAdjust="spacing" textLength="7.5841" x="85.4372" y="397.4908">C</text><text fill="#666666" font-family="sans-serif" font-size="12" lengthAdjust="spacing" textLength="3.12" x="93.0213" y="397.4908">&#160;</text><text fill="#666666" font-family="sans-serif" font-size="12" lengthAdjust="spacing" textLength="8.8441" x="96.1413" y="397.4908">is</text><text fill="#666666" font-family="sans-serif" font-size="12" lengthAdjust="spacing" textLength="3.12" x="104.9854" y="397.4908">&#160;</text><text fill="#666666" font-family="sans-serif" font-size="12" lengthAdjust="spacing" textLength="29.1362" x="108.1054" y="397.4908">slow)</text><rect fill="#FFFFFF" height="3" style="stroke:#FFFFFF;stroke-width:1;" width="1330.4681" x="5" y="432.8598"/><line style="stroke:#444444;stroke-width:1;" x1="5" x2="1335.4681" y1="432.8598" y2="432.8598"/><line style="stroke:#444444;stroke-width:1;" x1="5" x2="1335.4681" y1="435.8598" y2="435.8598"/><rect fill="#FFFFFF" height="25.706" style="stroke:#444444;stroke-width:2;" width="204.5541" x="567.957" y="421.0068"/><text fill="#444444" font-family="sans-serif" font-size="13" font-weight="bold" lengthAdjust="spacing" textLength="187.1741" x="573.957" y="438.9038">Asynchronous (event-driven)</text><polygon fill="#666666" points="625.3729,475.0569,635.3729,479.0569,625.3729,483.0569,629.3729,479.0569" style="stroke:#666666;stroke-width:1;"/><line style="stroke:#666666;stroke-width:1;" x1="524.7763" x2="631.3729" y1="479.0569" y2="479.0569"/><text fill="#666666" font-family="sans-serif" font-size="12" lengthAdjust="spacing" textLength="29.8922" x="536.7763" y="473.5409">POST</text><text fill="#666666" font-family="sans-serif" font-size="12" lengthAdjust="spacing" textLength="3.12" x="566.6685" y="473.5409">&#160;</text><text fill="#666666" font-family="sans-serif" font-size="12" lengthAdjust="spacing" textLength="55.5844" x="569.7885" y="473.5409">/checkout</text><polygon fill="#666666" points="723.7406,505.401,733.7406,509.401,723.7406,513.401,727.7406,509.401" style="stroke:#666666;stroke-width:1;"/><line style="stroke:#666666;stroke-width:1;" x1="637.3729" x2="729.7406" y1="509.401" y2="509.401"/><text fill="#666666" font-family="sans-serif" font-size="12" lengthAdjust="spacing" textLength="37.0443" x="668.0346" y="503.885">invoke</text><polygon fill="#666666" points="872.2655,552.0893,882.2655,556.0893,872.2655,560.0893,876.2655,556.0893" style="stroke:#666666;stroke-width:1;"/><line style="stroke:#666666;stroke-width:1;" x1="735.7406" x2="878.2655" y1="556.0893" y2="556.0893"/><text fill="#666666" font-family="sans-serif" font-size="12" lengthAdjust="spacing" textLength="41.5323" x="789.2369" y="534.2291">publish</text><text fill="#666666" font-family="sans-serif" font-size="12" lengthAdjust="spacing" textLength="124.5249" x="747.7406" y="550.5732">"CheckoutCompleted"</text><polygon fill="#666666" points="648.3729,582.4334,638.3729,586.4334,648.3729,590.4334,644.3729,586.4334" style="stroke:#666666;stroke-width:1;"/><line style="stroke:#666666;stroke-width:1;stroke-dasharray:2.0,2.0;" x1="642.3729" x2="734.7406" y1="586.4334" y2="586.4334"/><text fill="#666666" font-family="sans-serif" font-size="12" lengthAdjust="spacing" textLength="20.5921" x="666.3006" y="580.9174">200</text><text fill="#666666" font-family="sans-serif" font-size="12" lengthAdjust="spacing" textLength="3.12" x="686.8927" y="580.9174">&#160;</text><text fill="#666666" font-family="sans-serif" font-size="12" lengthAdjust="spacing" textLength="16.8001" x="690.0128" y="580.9174">OK</text><polygon fill="#666666" points="535.7763,629.1216,525.7763,633.1216,535.7763,637.1216,531.7763,633.1216" style="stroke:#666666;stroke-width:1;"/><line style="stroke:#666666;stroke-width:1;stroke-dasharray:2.0,2.0;" x1="529.7763" x2="636.3729" y1="633.1216" y2="633.1216"/><text fill="#666666" font-family="sans-serif" font-size="12" lengthAdjust="spacing" textLength="52.0444" x="555.0524" y="611.2615">response</text><text fill="#666666" font-family="sans-serif" font-size="12" lengthAdjust="spacing" textLength="67.8125" x="547.1683" y="627.6056">(immediate)</text><line style="stroke:#666666;stroke-width:1;" x1="1013.5331" x2="1003.5331" y1="663.4657" y2="659.4657"/><line style="stroke:#666666;stroke-width:1;" x1="1013.5331" x2="1003.5331" y1="663.4657" y2="667.4657"/><line style="stroke:#666666;stroke-width:1;" x1="884.2655" x2="1014.5331" y1="663.4657" y2="663.4657"/><text fill="#666666" font-family="sans-serif" font-size="12" lengthAdjust="spacing" textLength="30.7322" x="917.2831" y="657.9497">route</text><text fill="#666666" font-family="sans-serif" font-size="12" lengthAdjust="spacing" textLength="3.12" x="948.0153" y="657.9497">&#160;</text><text fill="#666666" font-family="sans-serif" font-size="12" lengthAdjust="spacing" textLength="31.3802" x="951.1353" y="657.9497">event</text><line style="stroke:#666666;stroke-width:1;" x1="1163.6236" x2="1153.6236" y1="693.8098" y2="689.8098"/><line style="stroke:#666666;stroke-width:1;" x1="1163.6236" x2="1153.6236" y1="693.8098" y2="697.8098"/><line style="stroke:#666666;stroke-width:1;" x1="884.2655" x2="1164.6236" y1="693.8098" y2="693.8098"/><text fill="#666666" font-family="sans-serif" font-size="12" lengthAdjust="spacing" textLength="30.7322" x="992.3283" y="688.2938">route</text><text fill="#666666" font-family="sans-serif" font-size="12" lengthAdjust="spacing" textLength="3.12" x="1023.0606" y="688.2938">&#160;</text><text fill="#666666" font-family="sans-serif" font-size="12" lengthAdjust="spacing" textLength="31.3802" x="1026.1806" y="688.2938">event</text><line style="stroke:#666666;stroke-width:1;" x1="1286.4842" x2="1276.4842" y1="724.154" y2="720.154"/><line style="stroke:#666666;stroke-width:1;" x1="1286.4842" x2="1276.4842" y1="724.154" y2="728.154"/><line style="stroke:#666666;stroke-width:1;" x1="884.2655" x2="1287.4842" y1="724.154" y2="724.154"/><text fill="#666666" font-family="sans-serif" font-size="12" lengthAdjust="spacing" textLength="30.7322" x="1053.7586" y="718.6379">route</text><text fill="#666666" font-family="sans-serif" font-size="12" lengthAdjust="spacing" textLength="3.12" x="1084.4909" y="718.6379">&#160;</text><text fill="#666666" font-family="sans-serif" font-size="12" lengthAdjust="spacing" textLength="31.3802" x="1087.6109" y="718.6379">event</text><!--SRC=[XLBBRjim4BppAxO-MGTPYT2J0HUGPACecY86tDu251IriOXGf4fIDlBtNTAANRj2SX8uCplx67sIMgYXGMYzxzqooom_BlRIjqCzEBJ2Q8_QBuJfibvnxOTEfSutIjPPzJdT1kZNZuUiuywZ9UZt3lyCg0KkUf8ovgLN2BjNBLfhj1aS71mKxl9cRBMwukSsE3YVMdIzqGuJMAqOwxdrKiYU6iAiKfAccW5tKDrVKyNs6tpb7e_yDVBqlb4yyAvkE1GdUfei8rbEazNOk6QikeVqI-onXEtZxYTaeaNnOWRF0XX9egG-c1TaHGJACm3p8vVU9QoC13d-nn06wLZqTf0e7vtFM35YSPGB6eU8tXVqIS-TCaUGpr21T10UISpXts1WZWSwSjfOITyFGiW_325_BuGRSXCQbrOsUupyffmEYHOH5gaFkA5smihUIwEJKtRJ3IkgsQD66wh2hQN0PDoXdgnOXtEXRW0xBjL9kyuf-doCFf-A_aJcb-WZi2cNq0-ragwb-utoodIzGe_DBAhEfldT7Jn-7yr2XFbLXBBhi96qHi8s9PdJFn84P8WGatk3QR59V7qZ_mi0]--></g></svg>